<?xml version="1.0" encoding="UTF-8"?>
<svg width="14px" height="20px" viewBox="0 0 14 20" version="1.1" xmlns="http://www.w3.org/2000/svg" xmlns:xlink="http://www.w3.org/1999/xlink">
    <!-- Generator: Sketch 62 (91390) - https://sketch.com -->
    <title>Shape</title>
    <desc>Created with Sketch.</desc>
    <g id="Page-1" stroke="none" stroke-width="1" fill="none" fill-rule="evenodd">
        <g id="A4" transform="translate(-951.000000, -939.000000)" fill="#FFFFFF" fill-rule="nonzero">
            <g id="Первый-экран">
                <g id="Group-19" transform="translate(851.000000, 905.000000)">
                    <g id="download-arrow" transform="translate(100.000000, 34.000000)">
                        <path d="M12.284132,12.1457045 C12.6832651,11.7388316 13.3116301,11.7388316 13.7107633,12.1457045 C14.0964122,12.5525773 14.0964122,13.1931271 13.7107633,13.6 L7.73275544,19.6948454 C7.54757204,19.8836197 7.29047275,20 7.00550606,20 C6.72053937,20 6.46344008,19.8836197 6.27735773,19.6948454 L0.299349868,13.6 C-0.0997832892,13.1931271 -0.0997832892,12.5525773 0.299349868,12.1457045 C0.698483024,11.7388316 1.32684806,11.7388316 1.72598122,12.1457045 L5.99239104,16.5095074 L5.99239104,1.01809851 C5.99149209,0.450859107 6.44815796,0 7.00460711,0 C7.56105626,0 8.00333895,0.450859107 8.00333895,1.01809851 L8.00333895,16.5085911 L12.284132,12.1457045 Z" id="Shape"></path>
                    </g>
                </g>
            </g>
        </g>
    </g>
</svg>