<?xml version="1.0" encoding="UTF-8"?>
<svg width="123px" height="101px" viewBox="0 0 123 101" version="1.1" xmlns="http://www.w3.org/2000/svg" xmlns:xlink="http://www.w3.org/1999/xlink">
    <!-- Generator: Sketch 62 (91390) - https://sketch.com -->
    <title>Combined Shape</title>
    <desc>Created with Sketch.</desc>
    <g id="Page-1" stroke="none" stroke-width="1" fill="none" fill-rule="evenodd">
        <g id="A4" transform="translate(-670.000000, -1291.000000)" fill="#FFB400" fill-rule="nonzero">
            <g id="Второй-экран" transform="translate(370.000000, 1081.000000)">
                <g id="Group-10" transform="translate(0.000000, 210.000000)">
                    <g id="Group-21" transform="translate(300.000000, 0.000000)">
                        <g id="wheel-2">
                            <g id="wheel">
                                <path d="M73.5,0.9 C73.7091241,0.9 73.9088776,0.940120279 74.0919833,1.01308368 C78.0023526,1.1062292 81.9408247,1.66046661 85.8304702,2.70260721 C98.6297211,6.09639981 109.539809,14.4685673 116.129416,25.9543129 C125.036123,41.3836197 125.044499,60.3909904 116.151499,75.8286733 C107.257736,91.2663559 90.8111294,100.793646 72.9954312,100.829435 C71.4086332,100.828058 69.8245216,100.751563 68.2482754,100.600633 L7,100.6 C6.1163444,100.6 5.4,99.8836556 5.4,99 C5.4,98.1654364 6.03896152,97.4801102 6.85436739,97.4065387 L7,97.4 L54.7548422,97.4007457 C50.7833372,95.858462 47.0470483,93.8182072 43.6293463,91.3439521 L19.4838392,91.0999184 C18.6002287,91.090993 17.8911563,90.3674497 17.8999983,89.4838392 C17.9085111,88.6493182 18.5543622,87.9704808 19.3704696,87.905149 L19.5161608,87.9000816 L39.611892,88.104014 C35.7117702,84.6086445 32.3542521,80.485548 29.6984953,75.856847 C22.1053378,62.7054568 21.0353992,47.0872778 26.2039479,33.3391146 L2.48383921,33.0999184 C1.60022868,33.090993 0.891156259,32.3674497 0.899998274,31.4838392 C0.908511124,30.6493182 1.55436218,29.9704808 2.37046956,29.905149 L2.51616079,29.9000816 L27.2661608,30.1500816 C27.3529316,30.1509581 27.4380193,30.1587258 27.5209093,30.1728597 C29.0631311,26.7954631 30.9994739,23.556777 33.324531,20.5266813 C39.1833439,12.8909082 46.9603192,7.2967428 55.6078037,4.09967706 L23.5,4.1 C22.6163444,4.1 21.9,3.3836556 21.9,2.5 C21.9,1.66543638 22.5389615,0.980110215 23.3543674,0.906538677 L23.5,0.9 L73.5,0.9 Z M72.8340035,4.30927135 C56.2107396,4.35419708 40.8689998,13.2487209 32.5714546,27.6531129 C24.274671,42.0575049 24.2769554,59.7909661 32.5790692,74.1930739 C40.5036463,87.9179032 54.7277849,96.4901138 70.1641774,97.4007412 L74,97.4 C74.1454972,97.4 74.2864585,97.4194207 74.420433,97.4558113 C75.9391988,97.4070101 77.465099,97.2827677 78.9933906,97.0815669 C97.4835222,94.6466709 112.719042,81.4240182 117.753412,63.5045752 L117.902839,62.9601304 C121.097892,51.0281737 119.42422,38.3149671 113.24732,27.6165632 C107.070419,16.9189205 96.8974172,9.11327368 84.9654604,5.91669708 C81.0089548,4.85294834 76.9306164,4.31231735 72.8340035,4.30927135 Z M111.822642,65.6914596 C112.668616,66.0501035 113.063048,67.0262854 112.704404,67.8722589 C109.055525,76.5063657 102.673794,83.7043739 94.5384382,88.3606542 C91.7043129,89.9840704 88.6996222,91.2884382 85.579191,92.2509138 C85.420809,92.3004082 85.2555739,92.3255361 85.0903388,92.3240786 C84.265686,92.3270589 83.5628655,91.7255117 83.4395103,90.9107579 C83.3153936,90.0952425 83.808053,89.3124696 84.5961561,89.0703277 C87.4805372,88.1824745 90.2567922,86.9770955 92.8746649,85.4762731 C100.383345,81.1816825 106.273179,74.5402961 109.64032,66.5732212 C109.812409,66.1666058 110.139833,65.8452729 110.548733,65.6800378 C110.958394,65.5148027 111.416788,65.5186099 111.822642,65.6914596 Z M92.7497867,26.343415 C92.7680616,26.3548366 92.7901439,26.3563596 92.8084187,26.3677815 C92.8533442,26.3997624 92.8761879,26.4477339 92.9180678,26.4827606 C98.9571454,31.3712842 102.948678,38.3431407 104.106086,46.026194 C104.106086,46.0444688 104.117507,46.0612207 104.117507,46.0810185 C105.804885,57.1228374 101.54989,68.2362329 92.9195906,75.3276376 C92.8853253,75.3679945 92.8487756,75.4060673 92.8099415,75.442617 C92.7863365,75.4570846 92.7596858,75.4586074 92.7368421,75.4738365 C83.9847099,82.6497624 72.0512304,84.5655762 61.4929337,80.4910452 C50.934637,76.4157528 43.3825536,66.9790752 41.7210647,55.7842045 C41.7210647,55.7659296 41.7096431,55.7491776 41.7096431,55.7293799 C40.0222649,44.6883224 44.2764986,33.5741655 52.9060368,26.4827606 C52.9403021,26.4424037 52.9776133,26.4043312 53.015686,26.3677815 C53.0392908,26.3533138 53.0659417,26.351791 53.0887854,26.3365618 C55.4623747,24.3627349 58.1357859,22.7830933 61.0073774,21.6572417 L61.584308,21.4381396 L61.6056287,21.4213877 C61.6239035,21.4076815 61.6421784,21.4160575 61.6589302,21.4076815 C72.1639255,17.4176717 83.9968932,19.2961745 92.7497867,26.343415 Z M70.403448,65.6267361 L64.6217409,77.896016 C69.8456334,79.5087465 75.4210238,79.5689079 80.6724763,78.0758127 L81.2145468,77.9158138 L75.4290327,65.6427267 C74.6158016,65.7881639 73.7911489,65.8643092 72.9649731,65.8726852 C72.106055,65.8635478 71.2486598,65.7813109 70.403448,65.6267361 Z M81.1208881,61.5324074 L79.6238731,62.3943713 L78.0286306,63.3210587 L84.3494456,76.762975 L84.360106,76.762975 C86.008227,76.04078 87.581143,75.157345 89.0558577,74.1271095 L89.6042277,73.7339181 L81.1208881,61.5324074 Z M64.7077852,61.5293616 L56.3691216,73.5374635 L61.584308,76.542154 L67.8152717,63.3225817 L64.7077852,61.5293616 Z M58.9024733,56.0963998 L45.3539534,57.2263949 C45.9813901,59.9706688 47.0154423,62.606055 48.4233674,65.0442251 C49.7300195,67.3054119 51.3445973,69.372914 53.2189379,71.1888136 L53.6560673,71.6033747 L61.4099355,60.4397234 C60.8654971,59.7978191 60.3758832,59.1102279 59.9471856,58.3853253 C59.5337172,57.6543312 59.1842105,56.8883101 58.9024733,56.0963998 Z M86.9231542,56.1116288 C86.3887532,57.5438514 85.6397611,58.8854547 84.701922,60.0906717 L84.4149306,60.4480994 L92.1611842,71.5934758 C96.1573347,67.8670269 98.9832575,63.0644819 100.302867,57.7703679 L100.429794,57.2393396 L86.9231542,56.1116288 Z M71.5966435,39.3391205 C71.5520986,39.809241 71.3083349,40.2349536 70.9314091,40.5107897 L70.8009259,40.5970394 L67.8937014,42.2768031 L66.4728314,43.1090704 L66.4061092,43.1530442 L66.4061092,43.1530442 L66.3365314,43.1935916 L66.278661,43.2171967 L65.0458698,43.9306774 C64.5935673,44.200993 64.0361842,44.2253595 63.5617994,43.9954008 C62.9229411,44.8665021 62.4066764,45.8213634 62.0282347,46.8333333 C62.562203,47.3959197 62.8792687,48.1274214 62.9272317,48.897633 L62.9336014,49.1085526 L62.9336014,52.7018458 C62.9366472,53.5523879 62.611507,54.3717105 62.0267117,54.9892483 C62.2429641,55.5907955 62.5102339,56.174068 62.8254752,56.7306897 C63.1528996,57.2873111 63.5275341,57.8157591 63.9448099,58.3091801 C64.6924176,58.1292005 65.477154,58.2147851 66.1662939,58.5464832 L66.3700353,58.6533565 L69.477522,60.4480994 C70.2047088,60.8729899 70.743817,61.5575353 70.9859589,62.3646747 C72.057322,62.5489462 73.150006,62.5847345 74.2312682,62.471278 C74.2751279,62.0011574 74.5188231,61.5754447 74.8957419,61.2996086 L75.0262244,61.2133589 L77.9342105,59.5335953 L79.3543189,58.7013279 C79.3984832,58.6708698 79.4441704,58.6426961 79.4906189,58.6168068 L79.5290722,58.6003403 L79.5290722,58.6003403 L79.5675255,58.5833029 L80.7820419,57.8797211 C81.2366288,57.6238731 81.7871589,57.6010294 82.2623051,57.8180433 C82.9026864,56.9461805 83.4197125,55.9905579 83.7989158,54.9770651 C83.2649473,54.4144787 82.9485216,53.682977 82.900665,52.9127654 L82.8943103,52.7018458 L82.8943103,49.1085526 C82.8912647,48.2580105 83.2156433,47.4386879 83.8012,46.8211501 C83.5849476,46.2196027 83.317678,45.6363304 83.0024366,45.0797088 C82.6750121,44.5261329 82.3034234,44.000731 81.889955,43.5080713 C81.1312312,43.6909469 80.3341176,43.6012542 79.638204,43.2583482 L79.4510234,43.1585649 L76.3534357,41.3584916 C75.6201571,40.9374086 75.0749573,40.2521016 74.8282468,39.442678 C73.7606908,39.2606908 72.673337,39.2256639 71.5966435,39.3391205 Z M74.6355994,44.4796844 C76.3427754,44.9304641 77.7979105,46.0467532 78.6758651,47.5780335 C80.263493,50.3268762 79.6885965,53.8143275 77.3029667,55.9083212 C74.9165752,58.0015534 71.3841984,58.1180556 68.8653142,56.1862513 C66.3464304,54.2544468 65.5430982,50.8119212 66.9464546,47.9648515 C68.3498111,45.1177815 71.5692312,43.6580776 74.6355994,44.4796844 Z M72.9139559,47.5780335 C71.1892667,47.5810795 69.7531676,48.9006762 69.6046844,50.6185125 C69.4562012,52.3363487 70.6448283,53.8828581 72.3428667,54.182109 C73.980261,54.4699379 75.5680929,53.5052545 76.0801934,51.9428136 L76.1326144,51.7667825 C76.3610503,50.9162402 76.2415021,50.0078277 75.8006214,49.2433296 C75.3597405,48.479593 74.6325536,47.9214485 73.7804885,47.6930129 C73.4979899,47.6176292 73.2063536,47.5787951 72.9139559,47.5780335 Z M44.8422575,47.8711928 C44.641911,49.664159 44.6154389,51.4709629 44.7612365,53.267539 L44.8239827,53.9407287 L59.606055,52.7086988 L59.606055,49.1085526 L44.8422575,47.8711928 Z M101.003929,47.8696698 L86.2210953,49.1016996 L86.2210953,52.7018458 L100.984131,53.9323526 C101.211044,51.9221187 101.216374,49.8875183 101.003929,47.8696698 Z M92.1741288,30.2138768 L84.4210222,41.3584916 C84.9677448,42.0034417 85.4581201,42.6925559 85.8883407,43.4197429 C86.217288,44.0063657 86.5048123,44.6149184 86.7493543,45.2411123 L86.9246772,45.7139984 L100.473197,44.5840035 C99.8465216,41.8397294 98.811708,39.2043433 97.4045442,36.7661733 C95.9973805,34.3340947 94.2346187,32.1251218 92.1741288,30.2138768 Z M53.6667275,30.2169224 C49.6691033,33.9455823 46.8424198,38.751051 45.5241434,44.0481117 L45.3973563,44.5794347 L58.9047575,45.7071454 C59.4338145,44.2892452 60.1725755,42.9601609 61.0966161,41.7643 L61.4114583,41.3706749 L53.6667275,30.2169224 Z M84.3380238,25.058845 L78.0073099,38.484771 L81.1147965,40.2795138 L89.585323,28.0789761 L89.0410203,27.6920284 C87.7465432,26.7946303 86.3790304,26.0071696 84.9528124,25.3382447 L84.3380238,25.058845 Z M61.4807505,25.0557992 C60.555586,25.4601304 59.6517423,25.9131945 58.7745493,26.4149914 C58.0721857,26.8213024 57.3868787,27.2573404 56.7217471,27.7223258 L56.22673,28.0764803 L64.7100694,40.277991 L66.2070846,39.4160271 L67.8023271,38.4893396 L61.4807505,25.0557992 Z M57.2577365,11.4775828 C57.7359283,11.8301353 57.9902534,12.4118848 57.9232456,13.0027717 C57.8569992,13.5936587 57.4800803,14.1038316 56.9348807,14.3414047 C55.5695967,14.936099 54.2370554,15.6023696 52.9425865,16.3379326 C45.4384747,20.6325232 39.5516873,27.2723867 36.18683,35.2371772 C35.828186,36.0839121 34.8520041,36.4783442 34.0052692,36.1197002 C33.1592959,35.7610563 32.7641021,34.7841131 33.1235076,33.9381396 C36.7716253,25.3040327 43.1541179,18.1060246 51.2894737,13.4497442 C52.689023,12.6547879 54.128929,11.9344542 55.6046236,11.2910271 C56.149062,11.053454 56.7795442,11.124269 57.2577365,11.4775828 Z M72.865223,22.6267665 C70.2814398,22.6309838 67.7112816,22.9907497 65.2272158,23.695883 L64.6080349,23.8793556 L70.3988791,36.1623415 C71.8955897,35.9135752 73.4200551,35.893016 74.9212065,36.100109 L75.4206567,36.1775708 L81.2122624,23.8945846 C78.509107,23.0592713 75.6955409,22.6320967 72.865223,22.6267665 Z M61.2698283,9.31962729 C62.188901,9.31962729 62.9336014,10.0643275 62.9336014,10.9834004 C62.9336014,11.9017117 62.188901,12.6464121 61.2698283,12.6464121 C60.3515168,12.6464121 59.606055,11.9017117 59.606055,10.9834004 C59.606055,10.0643275 60.3515168,9.31962729 61.2698283,9.31962729 Z" id="Combined-Shape"></path>
                            </g>
                        </g>
                    </g>
                </g>
            </g>
        </g>
    </g>
</svg>