<?xml version="1.0" encoding="UTF-8"?>
<svg width="84px" height="100px" viewBox="0 0 84 100" version="1.1" xmlns="http://www.w3.org/2000/svg" xmlns:xlink="http://www.w3.org/1999/xlink">
    <!-- Generator: Sketch 62 (91390) - https://sketch.com -->
    <title>Combined Shape</title>
    <desc>Created with Sketch.</desc>
    <g id="Page-1" stroke="none" stroke-width="1" fill="none" fill-rule="evenodd">
        <g id="A4" transform="translate(-1270.000000, -1291.000000)" fill="#FFB400" fill-rule="nonzero">
            <g id="Второй-экран" transform="translate(370.000000, 1081.000000)">
                <g id="Group-10" transform="translate(0.000000, 210.000000)">
                    <g id="Group-20" transform="translate(900.000000, 0.000000)">
                        <g id="oil-2">
                            <g id="jerrycan-2" transform="translate(-0.000000, 0.000000)">
                                <g id="jerrycan">
                                    <path d="M2.90882602,1.88649106 C3.78087254,0.27657897 5.78903416,-0.327357032 7.40443577,0.534478049 C10.0012051,1.97224958 12.4923002,3.59310281 14.8588228,5.38474146 C17.5864391,7.44498879 20.1989311,9.65337839 22.6845138,11.999948 C24.1064585,13.3436358 25.4651317,14.7256195 26.7705236,16.1192585 C28.2236024,15.5223429 29.8731055,15.6457625 31.2211772,16.4522667 L31.2211772,16.4522667 L35.4886764,19.0180943 C35.85488,18.8375873 36.2373187,18.6920822 36.6308943,18.5835187 L36.6308943,18.5835187 L36.6308943,15.8178862 C36.6400693,8.00528903 42.9711427,1.67421576 50.7837398,1.66504065 L50.7837398,1.66504065 L69.099187,1.66504065 C76.9117842,1.67421576 83.2428575,8.00528903 83.2520325,15.8178862 L83.2520325,15.8178862 L83.2520325,93.2422764 C83.2520325,96.9205827 80.2701762,99.902439 76.5918699,99.902439 L76.5918699,99.902439 L23.3105691,99.902439 C19.6322629,99.902439 16.6504065,96.9205827 16.6504065,93.2422764 L16.6504065,93.2422764 L16.6504065,37.3335415 C16.6608,36.0735486 17.0317356,34.8428739 17.7193626,33.7870049 L17.7193626,33.7870049 L15.9893854,29.4762146 C15.4221636,28.0467714 15.5450031,26.4357314 16.3223935,25.108813 C15.3550049,23.8833431 14.3210146,22.6245724 13.1305106,21.257574 C11.1960169,19.0806399 9.14325151,17.0117548 6.98151545,15.0602927 C5.27189561,13.5142419 3.46314342,12.0814788 1.56680325,10.771148 C0.109974253,9.81440142 -0.362685515,7.89617239 0.482861789,6.37211057 L0.482861789,6.37211057 Z M69.1175024,21.6455285 L38.4141528,21.6455285 C37.6458368,21.6463546 36.9013209,21.9121692 36.3062114,22.3981268 L36.3062114,22.3981268 L21.2009626,34.7560585 C20.4264924,35.3873867 19.9780895,36.3343551 19.9804782,37.3335415 L19.9804782,37.3335415 L19.9804782,93.2422764 C19.9804782,95.0814295 21.471416,96.5723577 23.3105691,96.5723577 L23.3105691,96.5723577 L76.5918699,96.5723577 C78.431023,96.5723577 79.9219512,95.0814295 79.9219512,93.2422764 L79.9219512,93.2422764 L79.9219512,35.5369626 L69.1175024,21.6455285 Z M71.596748,41.6260163 C73.4359011,41.6260163 74.9268293,43.1169444 74.9268293,44.9560976 L74.9268293,44.9560976 L74.9268293,88.2471545 C74.9268293,90.0863076 73.4359011,91.5772358 71.596748,91.5772358 L71.596748,91.5772358 L28.3056911,91.5772358 C26.4665379,91.5772358 24.9756098,90.0863076 24.9756098,88.2471545 L24.9756098,88.2471545 L24.9756098,44.9560976 C24.9756098,43.1169444 26.4665379,41.6260163 28.3056911,41.6260163 L28.3056911,41.6260163 Z M71.596748,44.9560976 L28.3056911,44.9560976 L28.3056911,88.2471545 L71.596748,88.2471545 L71.596748,44.9560976 Z M65.4244423,48.7740358 C66.0746405,48.124034 67.1286115,48.124034 67.7788098,48.7740358 C68.4288115,49.424234 68.4288115,50.478205 67.7788098,51.1284033 L67.7788098,51.1284033 L52.305587,66.601626 L67.7788098,82.0748488 C68.4098139,82.7281756 68.4007897,83.7666713 67.7585272,84.4089337 C67.1162648,85.0511962 66.0777691,85.0602204 65.4244423,84.4292163 L65.4244423,84.4292163 L49.9512195,68.9559935 L34.4779967,84.4292163 C34.0599475,84.8620546 33.4408797,85.035645 32.8587326,84.8832682 C32.2765852,84.7308912 31.8219544,84.2762603 31.6695773,83.694113 C31.5172005,83.1119658 31.690791,82.492898 32.1236293,82.0748488 L32.1236293,82.0748488 L47.596852,66.601626 L32.1236293,51.1284033 C31.4926251,50.4750764 31.5016493,49.4365808 32.1439118,48.7943183 C32.7861743,48.1520558 33.8246699,48.1430317 34.4779967,48.7740358 L34.4779967,48.7740358 L49.9512195,64.2472585 Z M58.2764228,24.9756098 C59.1959992,24.9756098 59.9414634,25.7210739 59.9414634,26.6406504 C59.9414634,27.5602269 59.1959992,28.3056911 58.2764228,28.3056911 L58.2764228,28.3056911 L40.5637203,28.3056911 L31.0363577,36.2446049 C30.737257,36.4940308 30.3601859,36.6307191 29.9707317,36.6308943 C29.2699586,36.6305791 28.6443871,36.1915237 28.4058606,35.532594 C28.167334,34.8736645 28.3669118,34.1359125 28.9051057,33.6871024 L28.9051057,33.6871024 L38.8953496,25.3618992 C39.1944503,25.1124733 39.5715214,24.9757849 39.9609756,24.9756098 L39.9609756,24.9756098 Z M29.5128455,19.3144715 C28.9022896,18.9501154 28.1277385,19.013658 27.5847285,19.4726504 L27.5847285,19.4726504 L19.5925333,26.3159675 L19.5459122,26.3592585 C19.0029896,26.8185532 18.8145729,27.5735614 19.0780358,28.2340943 L19.0780358,28.2340943 L20.273535,31.209522 L32.5731902,21.1460163 Z M69.099187,4.99512195 L50.7837398,4.99512195 C44.8095349,5.00246128 39.9683149,9.84368123 39.9609756,15.8178862 L39.9609756,15.8178862 L39.9609756,18.3154472 L44.9560976,18.3154472 L44.9560976,15.8178862 C44.9560976,12.5993682 47.5652219,9.9902439 50.7837398,9.9902439 L50.7837398,9.9902439 L65.7691057,9.9902439 C68.9876236,9.9902439 71.596748,12.5993682 71.596748,15.8178862 L71.596748,15.8178862 L71.596748,19.4093789 L79.9219512,30.1122602 L79.9219512,15.8178862 C79.9146119,9.84368123 75.073392,5.00246128 69.099187,4.99512195 L69.099187,4.99512195 Z M20.5749073,14.6107317 L15.563135,18.9947837 L15.6264065,19.0630504 C16.7602992,20.358452 17.7460033,21.5606114 18.678426,22.7261398 L18.678426,22.7261398 L24.0631675,18.1106472 C22.9409301,16.9218081 21.7837268,15.7462894 20.5749073,14.6107317 L20.5749073,14.6107317 Z M65.7691057,13.3203252 L50.7837398,13.3203252 C49.404375,13.3203252 48.2861789,14.4385213 48.2861789,15.8178862 L48.2861789,15.8178862 L48.2861789,18.3154472 L68.2666667,18.3154472 L68.2666667,15.8178862 C68.2666667,14.4385213 67.1484705,13.3203252 65.7691057,13.3203252 L65.7691057,13.3203252 Z M13.0222829,8.17534959 L9.22932033,12.6026927 C10.5763382,13.8098472 11.9216911,15.1235642 13.2903545,16.5455089 L13.2903545,16.5455089 L18.0989919,12.3396163 C16.3790049,10.8227642 14.6989789,9.44078049 13.0222829,8.17534959 L13.0222829,8.17534959 Z M5.81765203,3.46328455 L3.39501789,7.98553496 C4.59218211,8.79474472 5.70942439,9.64391545 6.69512846,10.443135 L6.69512846,10.443135 L10.3032715,6.23224715 C8.85742112,5.23159762 7.36016472,4.30734469 5.81765203,3.46328455 L5.81765203,3.46328455 Z" id="Combined-Shape"></path>
                                </g>
                            </g>
                        </g>
                    </g>
                </g>
            </g>
        </g>
    </g>
</svg>