<?xml version="1.0" encoding="UTF-8"?>
<svg width="100px" height="100px" viewBox="0 0 100 100" version="1.1" xmlns="http://www.w3.org/2000/svg" xmlns:xlink="http://www.w3.org/1999/xlink">
    <!-- Generator: Sketch 62 (91390) - https://sketch.com -->
    <title>Combined Shape</title>
    <desc>Created with Sketch.</desc>
    <g id="Page-1" stroke="none" stroke-width="1" fill="none" fill-rule="evenodd">
        <g id="A4" transform="translate(-970.000000, -1291.000000)" fill="#FFB400" fill-rule="nonzero">
            <g id="Второй-экран" transform="translate(370.000000, 1081.000000)">
                <g id="Group-10" transform="translate(0.000000, 210.000000)">
                    <g id="Group-17" transform="translate(600.000000, 0.000000)">
                        <g id="car-2">
                            <g id="car">
                                <path d="M50.7596774,0 C62.7919355,0 72.5806452,9.78870968 72.5806452,21.8209677 C72.5806452,25.7758065 71.5048387,29.6580645 69.4709677,33.05 L69.4709677,33.05 L62.9032258,43.9951613 L62.9032258,45.1612903 L91.9354839,45.1612903 C96.3822581,45.1612903 100,48.7790323 100,53.2258065 L100,53.2258065 L100,91.9354839 C100,96.3822581 96.3822581,100 91.9354839,100 L91.9354839,100 L8.06451613,100 C3.61774194,100 0,96.3822581 0,91.9354839 L0,91.9354839 L0,53.2258065 C0,48.7790323 3.61774194,45.1612903 8.06451613,45.1612903 L8.06451613,45.1612903 L37.0967742,45.1612903 L37.0967742,43.9951613 L30.5290323,33.0483871 C28.4951613,29.6580645 27.4193548,25.7758065 27.4193548,21.8209677 C27.4193548,9.78870968 37.2080645,0 49.2419355,0 L49.2419355,0 Z M37.0967742,48.3870968 L8.06451613,48.3870968 C5.39677419,48.3870968 3.22580645,50.5580645 3.22580645,53.2258065 L3.22580645,53.2258065 L3.22580645,91.9354839 C3.22580645,94.6032258 5.39677419,96.7741935 8.06451613,96.7741935 L8.06451613,96.7741935 L91.9354839,96.7741935 C94.6032258,96.7741935 96.7741935,94.6032258 96.7741935,91.9354839 L96.7741935,91.9354839 L96.7741935,53.2258065 C96.7741935,50.5580645 94.6032258,48.3870968 91.9354839,48.3870968 L91.9354839,48.3870968 L62.9032258,48.3870968 L62.9032258,51.6129032 L56.4516129,51.6129032 L56.4516129,64.516129 L62.9032258,64.516129 C67.35,64.516129 70.9677419,68.133871 70.9677419,72.5806452 C70.9677419,77.0274194 67.35,80.6451613 62.9032258,80.6451613 L62.9032258,80.6451613 L37.0967742,80.6451613 C32.65,80.6451613 29.0322581,77.0274194 29.0322581,72.5806452 C29.0322581,68.133871 32.65,64.516129 37.0967742,64.516129 L37.0967742,64.516129 L43.5483871,64.516129 L43.5483871,51.6129032 L37.0967742,51.6129032 L37.0967742,48.3870968 Z M88.7096774,51.6129032 C91.3774194,51.6129032 93.5483871,53.783871 93.5483871,56.4516129 L93.5483871,56.4516129 L93.5483871,88.7096774 C93.5483871,91.3774194 91.3774194,93.5483871 88.7096774,93.5483871 L88.7096774,93.5483871 L79.0322581,93.5483871 C76.3645161,93.5483871 74.1935484,91.3774194 74.1935484,88.7096774 L74.1935484,88.7096774 L74.1935484,56.4516129 C74.1935484,53.783871 76.3645161,51.6129032 79.0322581,51.6129032 L79.0322581,51.6129032 Z M25.8064516,51.6129032 L25.8064516,54.8387097 L9.67741935,54.8387097 L9.67741935,58.0645161 L19.3548387,58.0645161 L19.3548387,61.2903226 L9.67741935,61.2903226 L9.67741935,64.516129 L25.8064516,64.516129 L25.8064516,67.7419355 L9.67741935,67.7419355 L9.67741935,70.9677419 L19.3548387,70.9677419 L19.3548387,74.1935484 L9.67741935,74.1935484 L9.67741935,77.4193548 L25.8064516,77.4193548 L25.8064516,80.6451613 L9.67741935,80.6451613 L9.67741935,83.8709677 L19.3548387,83.8709677 L19.3548387,87.0967742 L9.67741935,87.0967742 L9.67741935,90.3225806 L27.4193548,90.3225806 L27.4193548,93.5483871 L6.4516129,93.5483871 L6.4516129,51.6129032 L25.8064516,51.6129032 Z M62.9032258,83.8709677 C65.5709677,83.8709677 67.7419355,86.0419355 67.7419355,88.7096774 C67.7419355,91.3774194 65.5709677,93.5483871 62.9032258,93.5483871 C60.2354839,93.5483871 58.0645161,91.3774194 58.0645161,88.7096774 C58.0645161,86.0419355 60.2354839,83.8709677 62.9032258,83.8709677 Z M50,83.8709677 C52.6677419,83.8709677 54.8387097,86.0419355 54.8387097,88.7096774 C54.8387097,91.3774194 52.6677419,93.5483871 50,93.5483871 C47.3322581,93.5483871 45.1612903,91.3774194 45.1612903,88.7096774 C45.1612903,86.0419355 47.3322581,83.8709677 50,83.8709677 Z M37.0967742,83.8709677 C39.7645161,83.8709677 41.9354839,86.0419355 41.9354839,88.7096774 C41.9354839,91.3774194 39.7645161,93.5483871 37.0967742,93.5483871 C34.4290323,93.5483871 32.2580645,91.3774194 32.2580645,88.7096774 C32.2580645,86.0419355 34.4290323,83.8709677 37.0967742,83.8709677 Z M90.3225806,87.0967742 L77.4193548,87.0967742 L77.4193548,88.7096774 C77.4193548,89.5983871 78.1435484,90.3225806 79.0322581,90.3225806 L79.0322581,90.3225806 L88.7096774,90.3225806 C89.5983871,90.3225806 90.3225806,89.5983871 90.3225806,88.7096774 L90.3225806,88.7096774 L90.3225806,87.0967742 Z M62.9032258,87.0967742 C62.0145161,87.0967742 61.2903226,87.8209677 61.2903226,88.7096774 C61.2903226,89.5983871 62.0145161,90.3225806 62.9032258,90.3225806 C63.7919355,90.3225806 64.516129,89.5983871 64.516129,88.7096774 C64.516129,87.8209677 63.7919355,87.0967742 62.9032258,87.0967742 Z M50,87.0967742 C49.1112903,87.0967742 48.3870968,87.8209677 48.3870968,88.7096774 C48.3870968,89.5983871 49.1112903,90.3225806 50,90.3225806 C50.8887097,90.3225806 51.6129032,89.5983871 51.6129032,88.7096774 C51.6129032,87.8209677 50.8887097,87.0967742 50,87.0967742 Z M37.0967742,87.0967742 C36.2080645,87.0967742 35.483871,87.8209677 35.483871,88.7096774 C35.483871,89.5983871 36.2080645,90.3225806 37.0967742,90.3225806 C37.9854839,90.3225806 38.7096774,89.5983871 38.7096774,88.7096774 C38.7096774,87.8209677 37.9854839,87.0967742 37.0967742,87.0967742 Z M90.3225806,80.6451613 L77.4193548,80.6451613 L77.4193548,83.8709677 L90.3225806,83.8709677 L90.3225806,80.6451613 Z M62.9032258,67.7419355 L56.4516129,67.7419355 L56.4516129,77.4193548 L62.9032258,77.4193548 C65.5709677,77.4193548 67.7419355,75.2483871 67.7419355,72.5806452 C67.7419355,69.9129032 65.5709677,67.7419355 62.9032258,67.7419355 L62.9032258,67.7419355 Z M53.2258065,51.6129032 L46.7741935,51.6129032 L46.7741935,77.4193548 L53.2258065,77.4193548 L53.2258065,51.6129032 Z M43.5483871,67.7419355 L37.0967742,67.7419355 C34.4290323,67.7419355 32.2580645,69.9129032 32.2580645,72.5806452 C32.2580645,75.2483871 34.4290323,77.4193548 37.0967742,77.4193548 L37.0967742,77.4193548 L43.5483871,77.4193548 L43.5483871,67.7419355 Z M90.3225806,74.1935484 L77.4193548,74.1935484 L77.4193548,77.4193548 L90.3225806,77.4193548 L90.3225806,74.1935484 Z M90.3225806,67.7419355 L77.4193548,67.7419355 L77.4193548,70.9677419 L90.3225806,70.9677419 L90.3225806,67.7419355 Z M90.3225806,61.2903226 L77.4193548,61.2903226 L77.4193548,64.516129 L90.3225806,64.516129 L90.3225806,61.2903226 Z M88.7096774,54.8387097 L79.0322581,54.8387097 C78.1435484,54.8387097 77.4193548,55.5629032 77.4193548,56.4516129 L77.4193548,56.4516129 L77.4193548,58.0645161 L90.3225806,58.0645161 L90.3225806,56.4516129 C90.3225806,55.5629032 89.5983871,54.8387097 88.7096774,54.8387097 L88.7096774,54.8387097 Z M59.6774194,45.1612903 L40.3225806,45.1612903 L40.3225806,48.3870968 L59.6774194,48.3870968 L59.6774194,45.1612903 Z M35.483871,9.67741935 L35.1903226,9.67741935 C32.366129,12.9387097 30.6451613,17.1790323 30.6451613,21.8209677 C30.6451613,25.1919355 31.5612903,28.5 33.2951613,31.3887097 L33.2951613,31.3887097 L39.6225806,41.9354839 L60.3774194,41.9354839 L66.7048387,31.3887097 C68.4387097,28.5 69.3548387,25.1903226 69.3548387,21.8209677 C69.3548387,17.1790323 67.633871,12.9387097 64.8096774,9.67741935 L64.8096774,9.67741935 L64.516129,9.67741935 C61.7403226,9.67741935 59.4112903,11.8467742 59.2145161,14.6145161 L59.2145161,14.6145161 L58.5209677,24.3258065 C58.2016129,28.7725806 54.4596774,32.2580645 50,32.2580645 C45.5403226,32.2580645 41.7983871,28.7725806 41.4806452,24.3258065 L41.4806452,24.3258065 L40.7870968,14.6145161 C40.5887097,11.8467742 38.2596774,9.67741935 35.483871,9.67741935 L35.483871,9.67741935 Z M50.7596774,3.22580645 L49.2403226,3.22580645 C45.0870968,3.22580645 41.2612903,4.61129032 38.1612903,6.91935484 C41.3516129,7.98870968 43.7516129,10.8709677 44.0032258,14.383871 L44.0032258,14.383871 L44.6967742,24.0951613 C44.8951613,26.8629032 47.2241935,29.0322581 50,29.0322581 C52.7758065,29.0322581 55.1048387,26.8629032 55.3016129,24.0967742 L55.3016129,24.0967742 L55.9951613,14.3854839 C56.2467742,10.8725806 58.6467742,7.99032258 61.8370968,6.92096774 C58.7387097,4.61129032 54.9129032,3.22580645 50.7596774,3.22580645 L50.7596774,3.22580645 Z" id="Combined-Shape"></path>
                            </g>
                        </g>
                    </g>
                </g>
            </g>
        </g>
    </g>
</svg>