<?xml version="1.0" encoding="UTF-8"?>
<svg width="117px" height="100px" viewBox="0 0 117 100" version="1.1" xmlns="http://www.w3.org/2000/svg" xmlns:xlink="http://www.w3.org/1999/xlink">
    <!-- Generator: Sketch 62 (91390) - https://sketch.com -->
    <title>Combined Shape</title>
    <desc>Created with Sketch.</desc>
    <g id="Page-1" stroke="none" stroke-width="1" fill="none" fill-rule="evenodd">
        <g id="A4" transform="translate(-370.000000, -1291.000000)" fill="#FFB400" fill-rule="nonzero">
            <g id="Второй-экран" transform="translate(370.000000, 1081.000000)">
                <g id="Group-10" transform="translate(0.000000, 210.000000)">
                    <g id="Group-26">
                        <g id="car-engine-2">
                            <g id="car-engine">
                                <path d="M82.7943182,1.86363636 C86.1695455,-0.625 90.7715909,-0.279090909 93.7363636,2.68613636 L93.7363636,2.68613636 L114.110227,23.06 C117.075455,26.025 117.421364,30.6268182 114.932727,34.0025 L114.932727,34.0025 L106.817727,45.0081818 C106.523182,45.4077273 106.068864,45.6588636 105.573864,45.6961364 C105.531136,45.6993182 105.488636,45.7009091 105.446136,45.7009091 C104.996136,45.7009091 104.562045,45.5225 104.241364,45.2018182 L104.241364,45.2018182 L101.588864,42.5493182 L99.6088636,44.5293182 C103.79,48.1268182 106.236364,53.3802273 106.236364,58.9456818 C106.236364,62.6577273 105.161591,66.2575 103.128182,69.3554545 C102.800909,69.8538636 102.256818,70.1245455 101.702045,70.1245455 C101.381136,70.1245455 101.056818,70.0343182 100.768409,69.845 C99.9815909,69.3284091 99.7625,68.2720455 100.278864,67.4852273 C101.946591,64.9443182 102.828182,61.9913636 102.828182,58.9454545 C102.828182,54.2925 100.744318,49.9031818 97.1918182,46.9459091 L97.1918182,46.9459091 L94.7681818,49.3695455 C97.6770455,51.6609091 99.4145455,55.1627273 99.4145455,58.9459091 C99.4145455,63.8295455 96.5327273,68.1743182 92.1322727,70.1084091 C92.0122727,71.5068182 91.6595455,72.8386364 91.1125,74.0668182 C92.8459091,73.6190909 94.4963636,72.875 95.9936364,71.8525 C96.7706818,71.3215909 97.8313636,71.5215909 98.3618182,72.2986364 C98.8927273,73.0759091 98.6929545,74.1361364 97.9156818,74.6670455 C95.0888636,76.5975 91.8154545,77.7202273 88.4088636,77.9338636 C86.5606818,79.7272727 84.1584091,80.9504545 81.4856818,81.3195455 L81.4856818,81.3195455 L81.4856818,94.7168182 C81.4856818,97.5154545 79.2088636,99.7929545 76.4102273,99.7929545 C74.2093182,99.7929545 72.3315909,98.3834091 71.63,96.4204545 L71.63,96.4204545 L69.1893182,96.4204545 C68.4877273,98.3834091 66.6102273,99.7929545 64.4090909,99.7929545 C62.2079545,99.7929545 60.3302273,98.3834091 59.6286364,96.4204545 L59.6286364,96.4204545 L57.1881818,96.4204545 C56.4863636,98.3838636 54.6081818,99.7929545 52.4065909,99.7929545 C50.2059091,99.7929545 48.3288636,98.3838636 47.6272727,96.4204545 L47.6272727,96.4204545 L45.1875,96.4204545 C44.4856818,98.3838636 42.6075,99.7929545 40.4059091,99.7929545 C37.6077273,99.7929545 35.3313636,97.5156818 35.3313636,94.7163636 L35.3313636,94.7163636 L35.3313636,88.5952273 C30.5415909,86.8770455 26.9104545,82.7115909 25.9484091,77.6134091 C17.1013636,75.8852273 10.5802273,68.0827273 10.5802273,58.9456818 C10.5802273,53.3813636 13.0263636,48.1275 17.2072727,44.5281818 L17.2072727,44.5281818 L15.2284091,42.5493182 L12.5759091,45.2020455 C12.255,45.5227273 11.8209091,45.7011364 11.3709091,45.7011364 C11.3284091,45.7011364 11.2859091,45.6995455 11.2431818,45.6963636 C10.7481818,45.6590909 10.2938636,45.4079545 9.99931818,45.0084091 L9.99931818,45.0084091 L1.88318182,34.0022727 C-0.604090909,30.6247727 -0.2575,26.0227273 2.70636364,23.0588636 L2.70636364,23.0588636 L15.035,10.7304545 C15.7006818,10.065 16.7797727,10.065 17.445,10.7304545 C18.1104545,11.3961364 18.1104545,12.475 17.445,13.1404545 L17.445,13.1404545 L5.11636364,25.4688636 C3.35295455,27.2322727 3.14704545,29.9709091 4.62681818,31.9806818 L4.62681818,31.9806818 L7.32636364,35.6413636 L35.6613636,7.30659091 L31.9995455,4.60704545 C29.9922727,3.12613636 27.2554545,3.33227273 25.4906818,5.09704545 L25.4906818,5.09704545 L22.2643182,8.32340909 C21.5988636,8.98886364 20.5197727,8.98886364 19.8543182,8.32340909 C19.1888636,7.65795455 19.1888636,6.57886364 19.8543182,5.91340909 L19.8543182,5.91340909 L23.0804545,2.68704545 C26.0465909,-0.279318182 30.6484091,-0.625227273 34.0222727,1.86409091 L34.0222727,1.86409091 L45.0277273,9.97727273 C45.4272727,10.2718182 45.6786364,10.7261364 45.7159091,11.2211364 C45.7529545,11.7161364 45.5727273,12.2027273 45.2215909,12.5538636 L45.2215909,12.5538636 L42.5688636,15.2068182 L54.2215909,26.8595455 L62.595,26.8595455 L74.2470455,15.2075 L71.5947727,12.5552273 C71.2438636,12.2040909 71.0631818,11.7175 71.1004545,11.2225 C71.1377273,10.7275 71.3888636,10.2731818 71.7884091,9.97863636 L71.7884091,9.97863636 Z M42.0743182,89.3231818 C41.4677273,89.4006818 40.8511364,89.445 40.2238636,89.445 C39.7227273,89.445 39.2277273,89.4195455 38.7395455,89.3697727 L38.7395455,89.3697727 L38.7395455,94.7163636 C38.7395455,95.6363636 39.4872727,96.3847727 40.4059091,96.3847727 C41.3259091,96.3847727 42.0743182,95.6363636 42.0743182,94.7163636 L42.0743182,94.7163636 Z M54.0752273,81.6759091 L50.7404545,84.9497727 L50.7404545,94.7163636 C50.7404545,95.6363636 51.4879545,96.3847727 52.4065909,96.3847727 C53.3268182,96.3847727 54.0752273,95.6363636 54.0752273,94.7161364 L54.0752273,94.7161364 L54.0752273,81.6759091 Z M66.0761364,81.4404545 L62.7418182,81.4404545 L62.7418182,94.7168182 C62.7418182,95.6361364 63.4897727,96.3840909 64.4090909,96.3840909 C65.3284091,96.3840909 66.0761364,95.6361364 66.0761364,94.7168182 L66.0761364,94.7168182 L66.0761364,81.4404545 Z M78.0775,81.4404545 L74.7431818,81.4404545 L74.7431818,94.7168182 C74.7431818,95.6361364 75.4909091,96.3840909 76.4102273,96.3840909 C77.3295455,96.3840909 78.0775,95.6361364 78.0775,94.7168182 L78.0775,94.7168182 L78.0775,81.4404545 Z M59.3336364,81.4404545 L57.4834091,81.4404545 L57.4834091,93.0122727 L59.3336364,93.0122727 L59.3336364,81.4404545 Z M71.3347727,81.4404545 L69.4843182,81.4404545 L69.4843182,93.0122727 L71.3347727,93.0122727 L71.3347727,81.4404545 Z M47.3322727,87.5804545 C46.74,87.9143182 46.1222727,88.2068182 45.4825,88.4561364 L45.4825,88.4561364 L45.4825,93.0122727 L47.3322727,93.0122727 Z M40.2240909,63.7913636 C34.0911364,63.7913636 29.1013636,68.7811364 29.1013636,74.9140909 C29.1013636,81.0472727 34.0911364,86.0368182 40.2240909,86.0368182 C46.3570455,86.0368182 51.3468182,81.0472727 51.3468182,74.9140909 C51.3468182,68.7809091 46.3570455,63.7913636 40.2240909,63.7913636 Z M40.2240909,69.7706818 C43.0602273,69.7706818 45.3675,72.0779545 45.3675,74.9140909 C45.3675,77.7502273 43.0602273,80.0575 40.2240909,80.0575 C37.3879545,80.0575 35.0806818,77.7502273 35.0806818,74.9140909 C35.0806818,72.0779545 37.3879545,69.7706818 40.2240909,69.7706818 Z M67.3927273,68.6020455 L57.7868182,78.0322727 L71.2575,78.0322727 C68.8731818,75.7711364 67.3815909,72.5772727 67.3815909,69.0395455 C67.3815909,68.8929545 67.3877273,68.7475 67.3927273,68.6020455 L67.3927273,68.6020455 Z M79.7815909,60.0477273 C74.8234091,60.0477273 70.7897727,64.0815909 70.7897727,69.0395455 C70.7897727,73.9977273 74.8236364,78.0313636 79.7815909,78.0313636 C84.7395455,78.0313636 88.7734091,73.9977273 88.7734091,69.0395455 C88.7734091,64.0813636 84.7395455,60.0477273 79.7815909,60.0477273 Z M40.2240909,73.1788636 C39.2672727,73.1788636 38.4888636,73.9572727 38.4888636,74.9140909 C38.4888636,75.8709091 39.2672727,76.6493182 40.2240909,76.6493182 C41.1809091,76.6493182 41.9593182,75.8709091 41.9593182,74.9140909 C41.9593182,73.9572727 41.1809091,73.1788636 40.2240909,73.1788636 Z M68.0268182,49.7595455 C68.0425,49.9831818 68.0531818,50.2081818 68.0531818,50.4359091 C68.0531818,55.7540909 63.7265909,60.0806818 58.4084091,60.0806818 C53.3227273,60.0806818 49.1465909,56.1229545 48.7911364,51.1261364 L48.7911364,51.1261364 L39.2904545,60.4163636 C39.5995455,60.3965909 39.9102273,60.3831818 40.2240909,60.3831818 C48.2363636,60.3831818 54.755,66.9018182 54.755,74.9140909 C54.755,75.3813636 54.7306818,75.8429545 54.6872727,76.2990909 L54.6872727,76.2990909 L71.0245455,60.2604545 L71.0225,60.2709091 C72.8243182,58.4709091 75.1763636,57.2229545 77.8009091,56.7997727 L77.8009091,56.7997727 Z M79.7815909,63.8961364 C82.6177273,63.8961364 84.925,66.2034091 84.925,69.0395455 C84.925,71.8756818 82.6177273,74.1829545 79.7815909,74.1829545 C76.9454545,74.1829545 74.6381818,71.8756818 74.6381818,69.0395455 C74.6381818,66.2034091 76.9454545,63.8961364 79.7815909,63.8961364 Z M19.6240909,46.945 C16.0720455,49.9040909 13.9884091,54.2938636 13.9884091,58.9456818 C13.9884091,66.1390909 18.9111364,72.325 25.7190909,74.0709091 C25.7861364,72.9043182 25.9913636,71.7745455 26.3188636,70.6970455 C24.1461364,70.0893182 22.1709091,68.8843182 20.6154545,67.1902273 C18.5425,64.9325 17.4009091,62.0045455 17.4009091,58.9456818 C17.4009091,55.1625 19.1388636,51.6606818 22.0481818,49.3690909 L22.0481818,49.3690909 Z M79.7815909,67.3043182 C78.8247727,67.3043182 78.0463636,68.0827273 78.0463636,69.0395455 C78.0463636,69.9963636 78.8247727,70.7747727 79.7815909,70.7747727 C80.7384091,70.7747727 81.5168182,69.9963636 81.5168182,69.0395455 C81.5168182,68.0827273 80.7384091,67.3043182 79.7815909,67.3043182 Z M24.4811364,51.8022727 C22.1902273,53.4440909 20.8093182,56.0840909 20.8090909,58.9459091 C20.8090909,63.0770455 23.7661364,66.655 27.7152273,67.5318182 C28.4181818,66.3452273 29.2852273,65.2679545 30.2845455,64.3288636 L30.2845455,64.3288636 L27.0895455,54.4106818 Z M92.3352273,51.8027273 L89.7268182,54.4111364 L88.0022727,59.7677273 C89.9313636,61.4797727 91.3234091,63.7825 91.8934091,66.39 C94.4161364,64.8084091 96.0063636,62.0254545 96.0063636,58.9459091 C96.0063636,56.0838636 94.6256818,53.4438636 92.3352273,51.8027273 L92.3352273,51.8027273 Z M62.5952273,30.2677273 L54.2218182,30.2677273 L30.5261364,53.9634091 L33.0386364,61.7627273 L51.8931818,43.3318182 C53.6106818,41.7554545 55.8988636,40.7911364 58.4084091,40.7911364 C60.5784091,40.7911364 62.5834091,41.5115909 64.1968182,42.7259091 C64.4368182,42.9065909 85.0381818,57.8125 85.0381818,57.8125 C85.0420455,57.8143182 85.0459091,57.8159091 85.0497727,57.8175 L85.0497727,57.8175 L86.2906818,53.9631818 L62.5952273,30.2677273 Z M58.4084091,44.1993182 C54.9695455,44.1993182 52.1718182,46.9970455 52.1718182,50.4359091 C52.1718182,53.8747727 54.9695455,56.6725 58.4084091,56.6725 C61.8472727,56.6725 64.645,53.8747727 64.645,50.4359091 C64.645,46.9970455 61.8472727,44.1993182 58.4084091,44.1993182 Z M76.6572727,17.6175 L65.7109091,28.5638636 L88.2327273,51.0854545 L99.1788636,40.1390909 L96.5802273,37.5404545 L91.7788636,42.3418182 C90.8327273,43.2879545 89.5747727,43.8090909 88.2365909,43.8090909 C86.8984091,43.8090909 85.6404545,43.2879545 84.6943182,42.3418182 C83.7481818,41.3956818 83.2270455,40.1375 83.2270455,38.7995455 C83.2270455,37.4615909 83.7481818,36.2034091 84.6943182,35.2572727 L84.6943182,35.2572727 L89.4956818,30.4559091 L86.3404545,27.3006818 L81.5390909,32.1020455 C80.5929545,33.0481818 79.335,33.5693182 77.9968182,33.5693182 C76.6588636,33.5693182 75.4006818,33.0481818 74.4545455,32.1020455 C72.5013636,30.1488636 72.5013636,26.9706818 74.4545455,25.0175 L74.4545455,25.0175 L79.2559091,20.2161364 L76.6572727,17.6175 Z M40.1595455,17.6175 L37.5609091,20.2161364 L42.3622727,25.0175 C44.3154545,26.9706818 44.3154545,30.1488636 42.3622727,32.1020455 C41.4161364,33.0481818 40.1581818,33.5693182 38.82,33.5693182 C37.4818182,33.5693182 36.2238636,33.0481818 35.2777273,32.1020455 L35.2777273,32.1020455 L30.4763636,27.3006818 L27.3211364,30.4559091 L32.1225,35.2572727 C33.0686364,36.2034091 33.5897727,37.4615909 33.5897727,38.7995455 C33.5897727,40.1375 33.0686364,41.3956818 32.1225,42.3418182 C31.1763636,43.2879545 29.9184091,43.8090909 28.5802273,43.8090909 C27.2420455,43.8090909 25.9840909,43.2879545 25.0379545,42.3418182 L25.0379545,42.3418182 L20.2368182,37.5406818 L17.6381818,40.1395455 L28.5840909,51.0854545 L51.1059091,28.5638636 L40.1595455,17.6175 Z M38.4356818,9.35181818 L9.37204545,38.4154545 L11.5665909,41.3913636 L41.4109091,11.545 L38.4356818,9.35181818 Z M78.3813636,9.35204545 L75.4056818,11.5461364 L105.250227,41.3906818 L107.444318,38.415 L78.3813636,9.35204545 Z M91.9056818,32.8656818 L87.1043182,37.6670455 C86.8018182,37.9695455 86.6352273,38.3718182 86.6352273,38.7995455 C86.6352273,39.2272727 86.8018182,39.6295455 87.1043182,39.9318182 C87.4068182,40.2343182 87.8090909,40.4009091 88.2368182,40.4009091 C88.6645455,40.4009091 89.0665909,40.2343182 89.3690909,39.9318182 L89.3690909,39.9318182 L94.1704545,35.1304545 L91.9056818,32.8656818 Z M24.9113636,32.8659091 L22.6465909,35.1304545 L27.4479545,39.9318182 C27.7504545,40.2343182 28.1525,40.4009091 28.5802273,40.4009091 C29.0081818,40.4009091 29.4102273,40.2343182 29.7127273,39.9318182 C30.0152273,39.6295455 30.1818182,39.2272727 30.1818182,38.7995455 C30.1818182,38.3718182 30.0152273,37.9697727 29.7127273,37.6672727 L29.7127273,37.6672727 L24.9113636,32.8659091 Z M91.3263636,5.09590909 C89.5625,3.33181818 86.825,3.12590909 84.8168182,4.60659091 L84.8168182,4.60659091 L81.1554545,7.30636364 L109.489773,35.6406818 L112.189545,31.9793182 C113.67,29.9715909 113.464318,27.2338636 111.700227,25.4697727 L111.700227,25.4697727 Z M35.1511364,22.6261364 L32.8863636,24.8909091 L37.6875,29.6922727 C37.99,29.9947727 38.3922727,30.1613636 38.82,30.1613636 C39.2477273,30.1613636 39.65,29.9947727 39.9525,29.6922727 C40.5768182,29.0679545 40.5768182,28.0518182 39.9525,27.4275 L39.9525,27.4275 L35.1511364,22.6261364 Z M81.6656818,22.6261364 L76.8643182,27.4275 C76.24,28.0518182 76.24,29.0679545 76.8643182,29.6922727 C77.1670455,29.9947727 77.5690909,30.1613636 77.9968182,30.1613636 C78.4247727,30.1613636 78.8268182,29.9947727 79.1293182,29.6922727 L79.1293182,29.6922727 L83.9306818,24.8909091 L81.6656818,22.6261364 Z" id="Combined-Shape"></path>
                            </g>
                        </g>
                    </g>
                </g>
            </g>
        </g>
    </g>
</svg>