<?xml version="1.0" encoding="UTF-8"?>
<svg width="18px" height="32px" viewBox="0 0 18 32" version="1.1" xmlns="http://www.w3.org/2000/svg" xmlns:xlink="http://www.w3.org/1999/xlink">
    <!-- Generator: Sketch 62 (91390) - https://sketch.com -->
    <title>icon</title>
    <desc>Created with Sketch.</desc>
    <g id="Page-1" stroke="none" stroke-width="1" fill="none" fill-rule="evenodd">
        <g id="A4" transform="translate(-733.000000, -7537.000000)" fill="#000000" fill-rule="nonzero">
            <g id="Group-40" transform="translate(4.000000, 7243.000000)">
                <g id="Group-39" transform="translate(607.000000, 81.000000)">
                    <g id="Group-36" transform="translate(122.000000, 212.000000)">
                        <g id="Group-37">
                            <g id="icon-2" transform="translate(0.000000, 1.000000)">
                                <g id="icon">
                                    <path d="M15.5645714,0 L2.36914286,0 C1.10628571,0 0.0868571429,1.024 0.0868571429,2.28457143 L0.0868571429,29.08 C0.0868571429,30.3394286 1.10628571,31.3622857 2.36914286,31.3622857 L15.5645714,31.3622857 C16.8251429,31.3622857 17.8468571,30.3394286 17.8468571,29.08 L17.8468571,2.28457143 C17.8468571,1.024 16.8251429,0 15.5645714,0 Z M5.71085714,1.38742857 L12.2251429,1.38742857 C12.3897143,1.38742857 12.5234286,1.63314286 12.5234286,1.93714286 C12.5234286,2.24114286 12.3897143,2.488 12.2251429,2.488 L5.71085714,2.488 C5.54514286,2.488 5.41371429,2.24114286 5.41371429,1.93714286 C5.41371429,1.63314286 5.54514286,1.38742857 5.71085714,1.38742857 Z M8.968,29.1074286 C8.16457143,29.1074286 7.51085714,28.4537143 7.51085714,27.6491429 C7.51085714,26.8445714 8.16457143,26.1931429 8.968,26.1931429 C9.76914286,26.1931429 10.4228571,26.8445714 10.4228571,27.6491429 C10.4228571,28.4537143 9.76914286,29.1074286 8.968,29.1074286 Z M16.1371429,24.1142857 L1.79771429,24.1142857 L1.79771429,3.85485714 L16.1371429,3.85485714 L16.1371429,24.1142857 Z" id="Shape"></path>
                                </g>
                            </g>
                        </g>
                    </g>
                </g>
            </g>
        </g>
    </g>
</svg>