<?xml version="1.0" encoding="UTF-8"?>
<svg width="32px" height="30px" viewBox="0 0 32 30" version="1.1" xmlns="http://www.w3.org/2000/svg" xmlns:xlink="http://www.w3.org/1999/xlink">
    <!-- Generator: Sketch 62 (91390) - https://sketch.com -->
    <title>phone (1)</title>
    <desc>Created with Sketch.</desc>
    <g id="Page-1" stroke="none" stroke-width="1" fill="none" fill-rule="evenodd">
        <g id="A4" transform="translate(-1029.000000, -7537.000000)" fill="#000000" fill-rule="nonzero">
            <g id="Group-40" transform="translate(4.000000, 7243.000000)">
                <g id="Group-39" transform="translate(607.000000, 81.000000)">
                    <g id="Group-36" transform="translate(122.000000, 212.000000)">
                        <g id="Group-38" transform="translate(296.000000, 0.000000)">
                            <g id="phone-(1)-2" transform="translate(0.000000, 1.000000)">
                                <g id="phone-(1)" transform="translate(0.000000, 0.000000)">
                                    <path d="M31.455,6.7513125 C27.3281875,2.4114375 21.83925,0.0208125 16,0.0208125 C10.16075,0.0208125 4.6718125,2.4114375 0.545,6.7513125 C-0.181625,7.515625 -0.181625,8.7585 0.545,9.5228125 L3.619625,12.755875 C4.3436875,13.515 5.6225,13.515 6.3465,12.755875 C7.3765625,11.6731875 8.5446875,10.7819375 9.8156875,10.1100625 C10.4525,9.7813125 10.864,9.0905 10.8588125,8.4381875 L11.3224375,4.9343125 C14.723875,3.8470625 17.3114375,3.84775 20.6790625,4.9336875 L21.1374375,8.350375 C21.1374375,9.0893125 21.5294375,9.7638125 22.170125,10.116 C23.4463125,10.791125 24.61575,11.6824375 25.6458125,12.7644375 C26.0065625,13.1453125 26.491,13.3543125 27.00925,13.3543125 C27.5275625,13.3543125 28.012,13.1453125 28.3726875,12.765125 L31.455125,9.5229375 C32.1816875,8.7584375 32.1816875,7.515625 31.455,6.7513125 Z" id="Path"></path>
                                    <path d="M24.6745,12.4518125 C24.09375,11.3633125 22.966125,10.6875 21.7330625,10.6875 L10.2669375,10.6875 C9.033875,10.6875 7.90625,11.3633125 7.3255,12.4518125 L3.058625,20.4525 C2.802125,20.93425 2.6666875,21.4765625 2.6666875,22.020875 L2.6666875,26.6875 C2.6666875,28.1581875 3.8633125,29.3541875 5.333375,29.3541875 L26.6666875,29.3541875 C28.13675,29.3541875 29.333375,28.15825 29.333375,26.6875 L29.333375,22.0208125 C29.333375,21.4765625 29.1979375,20.93425 28.9414375,20.4518125 L24.6745,12.4518125 Z M11.9986875,25.3541875 C11.263,25.3541875 10.665375,24.755875 10.665375,24.020875 C10.665375,23.285875 11.2630625,22.6875625 11.9986875,22.6875625 C12.734375,22.6875625 13.332,23.285875 13.332,24.020875 C13.3320625,24.755875 12.734375,25.3541875 11.9986875,25.3541875 Z M11.9986875,21.3541875 C11.263,21.3541875 10.665375,20.755875 10.665375,20.020875 C10.665375,19.285875 11.2630625,18.6875625 11.9986875,18.6875625 C12.734375,18.6875625 13.332,19.285875 13.332,20.020875 C13.3320625,20.755875 12.734375,21.3541875 11.9986875,21.3541875 Z M11.9986875,17.3541875 C11.263,17.3541875 10.665375,16.755875 10.665375,16.020875 C10.665375,15.285875 11.2630625,14.6875625 11.9986875,14.6875625 C12.734375,14.6875625 13.332,15.285875 13.332,16.020875 C13.3320625,16.755875 12.734375,17.3541875 11.9986875,17.3541875 Z M16,25.3541875 C15.2643125,25.3541875 14.6666875,24.755875 14.6666875,24.020875 C14.6666875,23.285875 15.264375,22.6875625 16,22.6875625 C16.735625,22.6875625 17.3333125,23.285875 17.3333125,24.020875 C17.3333125,24.755875 16.7356875,25.3541875 16,25.3541875 Z M16,21.3541875 C15.2643125,21.3541875 14.6666875,20.755875 14.6666875,20.020875 C14.6666875,19.285875 15.264375,18.6875625 16,18.6875625 C16.735625,18.6875625 17.3333125,19.285875 17.3333125,20.020875 C17.3333125,20.755875 16.7356875,21.3541875 16,21.3541875 Z M16,17.3541875 C15.2643125,17.3541875 14.6666875,16.755875 14.6666875,16.020875 C14.6666875,15.285875 15.264375,14.6875625 16,14.6875625 C16.735625,14.6875625 17.3333125,15.285875 17.3333125,16.020875 C17.3333125,16.755875 16.7356875,17.3541875 16,17.3541875 Z M19.9986875,25.3541875 C19.263,25.3541875 18.665375,24.755875 18.665375,24.020875 C18.665375,23.285875 19.2630625,22.6875625 19.9986875,22.6875625 C20.734375,22.6875625 21.332,23.285875 21.332,24.020875 C21.3320625,24.755875 20.734375,25.3541875 19.9986875,25.3541875 Z M19.9986875,21.3541875 C19.263,21.3541875 18.665375,20.755875 18.665375,20.020875 C18.665375,19.285875 19.2630625,18.6875625 19.9986875,18.6875625 C20.734375,18.6875625 21.332,19.285875 21.332,20.020875 C21.3320625,20.755875 20.734375,21.3541875 19.9986875,21.3541875 Z M19.9986875,17.3541875 C19.263,17.3541875 18.665375,16.755875 18.665375,16.020875 C18.665375,15.285875 19.2630625,14.6875625 19.9986875,14.6875625 C20.734375,14.6875625 21.332,15.285875 21.332,16.020875 C21.3320625,16.755875 20.734375,17.3541875 19.9986875,17.3541875 Z" id="Shape"></path>
                                </g>
                            </g>
                        </g>
                    </g>
                </g>
            </g>
        </g>
    </g>
</svg>