<?xml version="1.0" encoding="UTF-8"?>
<svg width="404px" height="57px" viewBox="0 0 404 57" version="1.1" xmlns="http://www.w3.org/2000/svg" xmlns:xlink="http://www.w3.org/1999/xlink">
    <!-- Generator: Sketch 62 (91390) - https://sketch.com -->
    <title>Group 23</title>
    <desc>Created with Sketch.</desc>
    <g id="Page-1" stroke="none" stroke-width="1" fill="none" fill-rule="evenodd">
        <g id="A4" transform="translate(-372.000000, -47.000000)" fill-rule="nonzero">
            <g id="Первый-экран">
                <g id="Group-23" transform="translate(372.000000, 46.000000)">
                    <g id="Group-22">
                        <g id="logo_1_AAe" fill="#FFFFFF">
                            <g id="Group" transform="translate(36.000000, 29.274108) scale(-1, 1) rotate(-180.000000) translate(-36.000000, -29.274108) translate(0.000000, 0.774108)">
                                <path d="M35.1213454,0.392201835 C35.2781371,0.601376147 36.0620957,1.22889908 36.8460543,1.77798165 C38.5707633,2.98073394 38.7798189,3.63440367 37.6561449,4.44495413 C36.6108668,5.17706422 36.6369987,5.85688073 37.7606727,7.08577982 C39.0672704,8.52385321 39.0150065,9.62201835 37.6561449,11.033945 C36.480207,12.2105505 36.5063389,12.5243119 37.8129366,13.6747706 C38.7798189,14.5376147 38.9627426,15.6357798 38.2310479,16.237156 C37.1857697,17.1261468 36.7415265,19.7408257 37.5254851,20.4990826 C37.9697283,20.9697248 39.5899094,21.0481651 40.5829237,20.6821101 C40.948771,20.5513761 42.072445,19.6885321 43.0654592,18.7733945 C46.6978008,15.5050459 50.3562743,13.9100917 53.4398448,14.25 C55.530401,14.4591743 57.803881,15.5573394 59.2672704,17.0477064 C59.8683053,17.6490826 60.3648124,18.2243119 60.3648124,18.3288991 C60.3648124,18.7995413 59.7376455,18.8256881 58.4571798,18.4073394 C56.5756792,17.7536697 53.4659767,17.8321101 51.087969,18.5642202 C49.1019405,19.1917431 45.6263907,20.7866972 44.894696,21.3880734 C44.1891332,21.9894495 44.319793,22.6954128 45.2866753,23.166055 C46.6194049,23.8720183 48.093079,23.4767706 50.6959897,22.7832823 C51.9154808,22.4583756 54.0060371,22.1414712 56.9676585,21.8325688 C59.5808538,21.7374107 61.749806,22.2080529 63.5006468,23.0447502 C65.643467,24.0383281 67.1329884,25.4408257 68.2043984,27.3495413 C69.56326,29.7811927 69.1974127,30.5655963 67.315912,29.1275229 C63.2131953,25.9899083 56.5234153,25.0486239 47.6124191,26.3036697 C46.9329884,26.4082569 46.4103493,26.643578 46.2535576,26.9573394 C46.1038927,27.2069224 46.0018485,28.6715208 45.992881,30.3050517 L45.992238,30.5394495 C45.992238,33.1802752 46.0706339,33.703211 46.4626132,34.0431193 C46.6978008,34.2522936 48.0305304,34.696789 49.389392,35.0105505 C55.2168176,36.3963303 61.0965071,38.8018349 64.4413972,41.2073394 C67.2113842,43.1683486 68.7270375,46.3153924 69.4326003,49.2344037 C69.8003582,50.7558695 69.7723157,52.3291538 69.4326003,53.4178899 C68.8054334,55.9802752 68.0476067,57.0261468 67.315912,56.2940367 C67.2113842,56.1633028 66.9500647,55.6926606 66.7410091,55.1958716 C66.0354463,53.4701835 63.2393273,48.9990826 61.5930142,46.9073394 C58.7968952,43.3775229 54.2760673,40.1876147 49.5461837,38.4357798 C47.6646831,37.7298165 46.6716688,37.8344037 45.0514877,39.0110092 C42.3598965,40.9458716 43.2483829,40.7889908 34.7554981,40.7889908 C30.7485985,40.8127081 28.4838292,40.8245667 27.9611902,40.8245667 C27.2643381,40.8245667 26.4368262,40.446653 25.4786546,39.6908257 C23.9891332,38.6188073 23.8062096,38.5665138 22.0815006,38.5665138 C20.0170763,38.5926606 19.2592497,38.906422 15.9404916,41.1288991 C11.759379,43.9266055 6.55912031,50.0188073 4.33790427,54.7513761 C3.63234153,56.2155963 2.97904269,56.6077982 2.43027167,55.9018349 C2.03829237,55.3788991 1.30659767,53.3750254 1.30659767,51.3261468 C1.30659767,49.2772682 2.06442432,47.1688073 2.74385511,45.6261468 C4.52082794,41.5211009 11.1322122,37.7298165 21.0100906,35.1412844 C21.9769728,34.9059633 22.9438551,34.5137615 23.1529107,34.3307339 C23.7016818,33.7555046 23.6755498,27.1142202 23.1006468,26.5651376 C22.8915912,26.3298165 22.5518758,26.146789 22.3950841,26.146789 C22.2121604,26.146789 20.7226391,26.016055 19.076326,25.8853211 C12.8307891,25.3362385 6.79430789,26.643578 3.55394567,29.2582569 C3.00517464,29.7027523 2.43027167,30.0688073 2.32574386,30.0688073 C1.82923674,30.0688073 2.14282018,28.6307339 2.92677878,27.2449541 C4.07658473,25.2316514 5.53997413,23.933741 7.83958603,22.7832823 C10.1043553,22.0860346 12.0555412,21.7429833 13.6931436,21.7541284 C17.013146,21.7767236 18.0049159,21.7279817 19.9386805,22.1986239 C21.2191462,22.5123853 22.2121604,23.0447502 23.5187581,23.0447502 C24.8253558,23.0447502 25.1912031,22.1724771 25.0344114,21.5972477 C24.9037516,21.1266055 20.2783959,18.956422 18.2401035,18.4334862 C15.8359638,17.8059633 13.0921087,17.8059633 11.2890039,18.4073394 C9.25071151,19.1133028 8.96326003,18.6426606 10.4527814,17.1261468 C12.883053,14.6422018 16.4369987,13.6224771 19.4944373,14.5114679 C21.5588616,15.112844 23.6494179,16.2110092 25.269599,17.5706422 C29.189392,20.8389908 29.3200517,20.9174312 30.1562743,20.9174312 C30.6266494,20.9174312 31.2015524,20.7605505 31.4890039,20.5775229 C31.9332471,20.2376147 31.959379,19.6885321 31.9071151,11.1385321 L31.8548512,2.09174312 L32.6388098,1.28119266 C33.083053,0.836697248 33.4489004,0.366055046 33.4489004,0.235321101 C33.4489004,-0.156880734 34.807762,-0.026146789 35.1213454,0.392201835 Z M21.349806,29.3105505 C21.7940492,29.6766055 21.7940492,31.4807339 21.3759379,31.846789 C21.1930142,32.0036697 19.8602846,32.3174312 18.4230272,32.5527523 C12.3865459,33.5724771 7.34307891,35.8211009 4.31177232,38.8279817 C3.29262613,39.8477064 2.11668823,41.259633 1.69857697,41.9655963 C0.99301423,43.2206422 0.601034929,43.6651376 0.209055627,43.6651376 C0.0783958603,43.6651376 7.10542736e-15,42.4362385 7.10542736e-15,40.9458716 C7.10542736e-15,38.9587156 1.30659767,35.8566768 2.45640362,34.3307339 C4.71284215,31.336145 8.30996119,29.5981651 13.7454075,28.996789 C16.7767141,28.6830275 20.774903,28.8399083 21.349806,29.3105505 Z M70.2949547,37.7298165 C70.642007,38.7231775 71.0789133,40.040163 71.0789133,41.0504587 C71.0789133,43.1683486 71.0266494,43.4036697 70.6085382,43.4036697 C70.2949547,43.4036697 69.8768435,42.9330275 69.4326003,42.1486239 C67.4988357,38.6188073 63.6313066,35.7688073 58.3003881,33.9646789 C55.8439845,33.1279817 51.2186287,32.1605505 49.6768435,32.1605505 C48.3441138,32.1605505 47.6124191,31.4022936 47.9782665,30.3825688 C48.2918499,29.493578 49.2064683,29.3366972 53.9102199,29.3105505 C62.7166882,29.2582569 68.7270375,33.2419979 70.2949547,37.7298165 Z M40.9226391,26.6697248 C40.7135834,26.8788991 39.7728331,28.8399083 38.8582147,30.983945 C37.9174644,33.1541284 36.9767141,35.2720183 36.7415265,35.690367 C36.5063389,36.1348624 36.3234153,36.6055046 36.3234153,36.7623853 C36.3234153,37.8605505 39.0672704,38.0174312 40.5829237,36.9977064 C41.1055627,36.6316514 41.6020699,36.056422 41.6543338,35.7426606 C41.7327296,35.4288991 41.8372574,33.3894495 41.9156533,31.1931193 C41.9940492,28.1077982 41.9417853,27.140367 41.6804657,26.7481651 C41.3668823,26.3298165 41.2884864,26.3298165 40.9226391,26.6697248 Z M27.9350582,27.1926606 C27.4124191,27.1926606 27.4124191,27.2711009 27.490815,31.4807339 C27.5692109,35.6380734 27.5953428,35.7949541 28.2225097,36.4747706 C28.5883571,36.8669725 29.1109961,37.2853211 29.3984476,37.3899083 C30.286934,37.7559633 32.0377749,37.6775229 32.4036223,37.2591743 C32.6649418,36.9454128 32.4036223,36.1348624 30.9663648,32.8926606 C30.0256145,30.6963303 29.0587322,28.5 28.8496766,28.0555046 C28.614489,27.4802752 28.3009056,27.1926606 27.9350582,27.1926606 Z M34.4941785,29.4412844 C33.9976714,29.4674312 33.3182406,29.493578 33.0046572,29.5197248 C32.2468305,29.5458716 32.2206986,30.4087156 32.9001294,31.9513761 C33.1614489,32.5788991 33.5272962,33.4155963 33.684088,33.8077982 C34.1283312,34.9582569 34.78163,34.5922018 35.7223803,32.6834862 C36.7415265,30.5917431 36.8199224,29.6504587 36.0098318,29.493578 C35.6701164,29.4151376 34.9906856,29.3889908 34.4941785,29.4412844 Z M30.7311772,24.7348624 C30.1824062,24.9440367 30.2085382,26.0944954 30.7573092,26.7220183 C31.1231565,27.140367 31.6196636,27.1926606 34.4419146,27.1926606 C37.1335058,27.1926606 37.8129366,27.1142202 38.2049159,26.7481651 C38.7798189,26.2252294 38.8320828,24.9440367 38.2571798,24.7348624 C37.7345408,24.5256881 31.2538163,24.5256881 30.7311772,24.7348624 Z M34.1262407,2.48414528 L34.1021992,2.48394495 C33.6056921,2.48394495 33.5795602,2.69311927 33.5011643,10.3279817 C33.4750323,14.6422018 33.5011643,18.3027523 33.5795602,18.4857798 C33.7363519,18.9302752 34.1021992,18.9041284 34.4680466,18.459633 C34.6771022,18.2243119 34.7554981,15.8449541 34.7032342,10.3018349 C34.6261235,2.81785231 34.5995772,2.49279172 34.1262407,2.48414528 Z" id="Combined-Shape"></path>
                            </g>
                        </g>
                        <g id="Автобезопасность" transform="translate(88.932264, 20.254495)">
                            <path d="M4.98597671,22.0574312 L7.30649418,16.4097248 L14.7697801,16.4097248 L15.491022,22.0574312 L20.2574903,22.0574312 L16.8707891,1.75706422 C16.8080724,1.0040367 16.1181889,0.407889908 15.3342303,0.407889908 L10.8186287,0.407889908 C10.0346701,0.407889908 9.37614489,0.815779817 9.09391979,1.56880734 L0,22.0574312 L4.98597671,22.0574312 Z M14.2680466,12.613211 L8.87441138,12.613211 L11.6025873,6.02422018 C11.8848124,5.33394495 12.1356792,4.58091743 12.3551876,3.9533945 L13.2645796,3.9533945 C13.2959379,4.64366972 13.3272962,5.3653211 13.4213713,6.05559633 L14.2680466,12.613211 Z M31.7660026,22.3084404 C36.8460543,22.3084404 38.9784217,21.2730275 39.636947,16.8489908 C40.1386805,13.3976147 39.1979301,11.2012844 35.9366624,10.9502752 L35.9680207,10.7620183 C38.7589133,10.5110092 39.8878137,9.00495413 40.3268305,5.99284404 C40.9539974,1.44330275 38.727555,0.156880734 33.3652781,0.156880734 L32.9271247,0.156880734 C29.7692645,0.159964968 27.803944,0.197806143 25.4943338,0.407889908 L22.4525744,22.0574312 C25.2121087,22.2770642 27.4385511,22.3084404 31.7660026,22.3084404 Z M32.2363777,9.22458716 L28.9123933,9.22458716 L29.6963519,3.79651376 L33.1771281,3.79651376 C35.4035705,3.79651376 36.0307374,4.23577982 35.7485123,6.27522936 C35.4035705,8.62844037 34.5568952,9.22458716 32.2363777,9.22458716 Z M31.0158977,18.6685635 L27.5953428,18.6688073 L28.4733765,12.4563303 L32.079586,12.4563303 C34.6509702,12.4877064 35.2467788,13.0838532 34.901837,15.5625688 C34.5609062,18.0434734 33.7298422,18.6546847 31.0158977,18.6685635 Z M51.6471928,22.0574312 L54.1558603,4.29853211 L60.5843208,4.29853211 L61.1174127,0.407889908 L43.4626649,0.407889908 L42.9295731,4.29853211 L49.3580336,4.29853211 L46.8493661,22.0574312 L51.6471928,22.0574312 Z M69.4273739,22.4653211 C75.8871928,22.4653211 78.6780854,20.0179817 79.8383441,11.4209174 C81.0299612,2.76110092 78.3331436,0 71.9046831,0 C65.2880724,0 62.5912549,2.66697248 61.4309961,11.0444037 C60.2707374,19.7669725 62.8421216,22.4653211 69.4273739,22.4653211 Z M69.5214489,18.606055 C66.2915395,18.606055 65.6330142,17.0686239 66.4483312,11.4209174 C67.3263648,5.39669725 68.4239069,3.85926606 71.7478913,3.85926606 C74.9464424,3.85926606 75.6990427,5.23981651 74.8523674,11.0444037 C73.9743338,17.0058716 72.814075,18.606055 69.5214489,18.606055 Z" id="АВТО" fill="#FFFFFF"></path>
                            <path d="M91.033273,22.3398165 C96.0819664,22.3398165 98.1202587,20.9592661 98.8415006,15.9077064 C99.5627426,10.8875229 97.5558085,9.19321101 91.6917982,9.19321101 L88.5873221,9.19321101 L89.308564,4.11027523 L98.8101423,4.11027523 L99.7195343,0.407889908 C97.2735834,0.282385321 94.8903493,0.188256881 92.4757568,0.188256881 C89.9984476,0.188256881 87.4897801,0.251009174 85.0438292,0.407889908 L82.0020699,22.0574312 C84.6988875,22.2770642 86.7998965,22.3398165 91.033273,22.3398165 Z M90.3426021,18.6686075 L87.2389133,18.6688073 L88.116947,12.4563303 L91.4095731,12.4563303 C94.137749,12.4563303 94.4199741,13.0211009 94.1063907,15.4056881 C93.7652816,18.1050826 93.0868535,18.656683 90.3426021,18.6686075 L90.3426021,18.6686075 Z M115.994515,21.8377982 L116.08859,18.2922936 L108.092212,18.2922936 C106.900595,18.2922936 106.524295,17.8530275 106.681087,16.6921101 L107.276895,12.5190826 L115.806365,12.5190826 L116.245382,9.13045872 L107.74727,9.13045872 L108.186287,5.86733945 C108.343079,4.58091743 108.813454,4.17302752 110.005071,4.17302752 L118.095524,4.17302752 L118.691332,0.658899083 C115.837723,0.345137615 112.168797,0.313761468 108.719379,0.313761468 C105.708978,0.313761468 103.921552,1.9453211 103.545252,4.58091743 L101.851902,16.9431193 C101.412885,20.0807339 102.980802,22.1515596 106.61837,22.1515596 L107.248823,22.1515596 C110.118125,22.1500673 113.396098,22.1299209 115.994515,21.8377982 Z M126.468202,22.3084404 C131.548254,22.3084404 133.461113,21.1161468 134.056921,16.8489908 C134.558655,13.3034862 133.555188,11.2326606 130.576145,10.9502752 L130.607503,10.7620183 C133.398396,10.5110092 134.495938,9.00495413 134.934955,5.99284404 C135.562122,1.50605505 133.241604,0.156880734 128.098836,0.156880734 C125.433376,0.156880734 123.395084,0.313761468 121.262717,0.753027523 L121.419508,4.20440367 C123.426442,3.98477064 125.151151,3.79651376 127.565744,3.79651376 C129.854903,3.79651376 130.450712,4.17302752 130.168486,6.27522936 C129.854903,8.50293578 129.070944,9.16183486 126.781785,9.16183486 L122.799276,9.16183486 L122.391617,12.5190826 L126.593635,12.5190826 C129.008228,12.5190826 129.698111,13.1152294 129.321811,15.5625688 C128.976869,18.0099083 128.036119,18.6688073 125.496093,18.6688073 C123.363726,18.6688073 121.043208,18.4491743 118.722691,18.1040367 L118.158241,21.3357798 C120.510116,21.9946789 122.830634,22.3084404 126.468202,22.3084404 Z M145.690867,22.4653211 C152.150686,22.4653211 154.941578,20.0179817 156.101837,11.4209174 C157.293454,2.76110092 154.596636,0 148.168176,0 C141.551565,0 138.854748,2.66697248 137.694489,11.0444037 C136.53423,19.7669725 139.105614,22.4653211 145.690867,22.4653211 Z M145.784942,18.606055 C142.555032,18.606055 141.896507,17.0686239 142.711824,11.4209174 C143.589858,5.39669725 144.6874,3.85926606 148.011384,3.85926606 C151.209935,3.85926606 151.962536,5.23981651 151.11586,11.0444037 C150.237827,17.0058716 149.077568,18.606055 145.784942,18.606055 Z M163.063389,22.0574312 L165.634774,3.85926606 L173.129418,3.85926606 L170.558034,22.0574312 L175.387219,22.0574312 L178.428978,0.407889908 L161.307322,0.407889908 L158.265563,22.0574312 L163.063389,22.0574312 Z M182.662354,22.0574312 L184.982872,16.4097248 L192.446158,16.4097248 L193.1674,22.0574312 L197.933868,22.0574312 L194.547167,1.75706422 C194.48445,1.0040367 193.794567,0.407889908 193.010608,0.407889908 L188.495006,0.407889908 C187.711048,0.407889908 187.052523,0.815779817 186.770298,1.56880734 L177.676378,22.0574312 L182.662354,22.0574312 Z M191.944424,12.613211 L186.550789,12.613211 L189.278965,6.02422018 C189.56119,5.33394495 189.812057,4.58091743 190.031565,3.9533945 L190.940957,3.9533945 C190.972316,4.64366972 191.003674,5.3653211 191.097749,6.05559633 L191.944424,12.613211 Z M208.344838,22.433945 C211.292523,22.433945 213.142665,22.2143119 215.243674,21.586789 L215.055524,18.0099083 C213.142665,18.2295413 211.449314,18.3236697 208.50163,18.2922936 C205.365796,18.2922936 204.801345,16.7862385 205.553946,11.4209174 C206.369263,5.27119266 207.654955,4.17302752 210.790789,4.17302752 L211.186158,4.17328353 C213.565003,4.17649313 214.877827,4.2108398 216.811591,4.32990826 L217.438758,0.78440367 C215.525899,0.282385321 213.98934,0.0313761468 210.978939,0.0313761468 C204.299612,0.0313761468 201.759586,2.66697248 200.567969,11.0444037 C199.439069,19.1708257 201.665511,22.433945 208.344838,22.433945 Z M222.89511,22.0574312 L224.243519,12.4249541 L231.738163,12.4249541 L230.389754,22.0574312 L235.187581,22.0574312 L238.22934,0.407889908 L233.431514,0.407889908 L232.271255,8.69119266 L224.776611,8.69119266 L225.936869,0.407889908 L221.139043,0.407889908 L218.097283,22.0574312 L222.89511,22.0574312 Z M248.389444,22.4653211 C254.849263,22.4653211 257.640155,20.0179817 258.800414,11.4209174 C259.992031,2.76110092 257.295213,0 250.866753,0 C244.250142,0 241.553325,2.66697248 240.393066,11.0444037 C239.232807,19.7669725 241.804191,22.4653211 248.389444,22.4653211 Z M248.483519,18.606055 C245.253609,18.606055 244.595084,17.0686239 245.410401,11.4209174 C246.288435,5.39669725 247.385977,3.85926606 250.709961,3.85926606 C253.908512,3.85926606 254.661113,5.23981651 253.814437,11.0444037 C252.936404,17.0058716 251.776145,18.606055 248.483519,18.606055 Z M269.493609,22.433945 C272.441294,22.433945 274.291436,22.2143119 276.392445,21.586789 L276.204295,18.0099083 C274.291436,18.2295413 272.598085,18.3236697 269.650401,18.2922936 C266.514567,18.2922936 265.950116,16.7862385 266.702717,11.4209174 C267.518034,5.27119266 268.803726,4.17302752 271.93956,4.17302752 L272.334929,4.17328353 C274.713774,4.17649313 276.026598,4.2108398 277.960362,4.32990826 L278.587529,0.78440367 C276.67467,0.282385321 275.138111,0.0313761468 272.12771,0.0313761468 C265.448383,0.0313761468 262.908357,2.66697248 261.71674,11.0444037 C260.58784,19.1708257 262.814282,22.433945 269.493609,22.433945 Z M288.716274,22.0574312 L291.224942,4.29853211 L297.653402,4.29853211 L298.186494,0.407889908 L280.531746,0.407889908 L279.998655,4.29853211 L286.427115,4.29853211 L283.918448,22.0574312 L288.716274,22.0574312 Z M306.904114,22.3084404 C311.984166,22.3084404 313.897025,20.8651376 314.618266,15.593945 C315.370867,10.1972477 313.363933,8.44018349 307.625356,8.44018349 L304.614955,8.44018349 L305.743855,0.407889908 L300.946028,0.407889908 L297.872911,22.0574312 C300.53837,22.2770642 302.670737,22.3084404 306.904114,22.3084404 Z M306.116334,18.6058857 L303.172471,18.606055 L304.113221,11.7974312 L307.280414,11.7974312 C310.039948,11.7974312 310.228098,12.613211 309.851798,15.2488073 C309.479588,18.1040367 308.831255,18.5955383 306.116334,18.6058857 L306.116334,18.6058857 Z" id="БЕЗОПАСНОСТЬ" fill="#FFB400"></path>
                        </g>
                    </g>
                </g>
            </g>
        </g>
    </g>
</svg>