<?xml version="1.0" encoding="UTF-8"?>
<svg width="442px" height="279px" viewBox="0 0 442 279" version="1.1" xmlns="http://www.w3.org/2000/svg" xmlns:xlink="http://www.w3.org/1999/xlink">
    <!-- Generator: Sketch 62 (91390) - https://sketch.com -->
    <title>motor</title>
    <desc>Created with Sketch.</desc>
    <g id="Page-1" stroke="none" stroke-width="1" fill="none" fill-rule="evenodd">
        <g id="A4" transform="translate(-1107.000000, -3857.000000)">
            <g id="Пятый-экран" transform="translate(0.000000, 3677.000000)">
                <g id="Текст" transform="translate(372.000000, 162.000000)">
                    <g id="motor" transform="translate(736.000000, 19.000000)">
                        <g id="Shape-2" fill-rule="nonzero" stroke="#FFFFFF" stroke-dasharray="8,4" stroke-opacity="0.7" stroke-width="2">
                            <path d="M431.40625,91.295587 C426.660781,91.295587 422.8125,95.1469193 422.8125,99.8980714 L422.8125,151.403727 L393.59375,151.403727 L393.59375,78.2714255 C393.59375,75.9900466 392.687969,73.8015745 391.076641,72.1886087 L364.448047,45.5320901 C362.835859,43.9191242 360.650469,43.0124224 358.371406,43.0124224 L280.15625,43.0124224 L280.15625,17.2049689 L327.421875,17.2049689 C343.533437,17.2049689 334.05625,0 327.421875,0 L271.5625,0 L202.8125,0 L146.953125,0 C140.31875,0 130.841562,17.2049689 146.953125,17.2049689 L194.21875,17.2049689 L194.21875,43.0124224 L155.260703,43.0124224 C152.981641,43.0124224 150.79625,43.9191242 149.184062,45.5320901 L123.915,70.8276957 L89.375,70.8276957 C84.6295312,70.8276957 80.78125,74.679028 80.78125,79.4301801 L80.78125,116.993789 L63.59375,116.993789 C58.8482812,116.993789 55,120.845121 55,125.596273 L55,151.403727 L44.6875,151.403727 L44.6875,89.9243509 C44.6875,77.5918292 34.6646094,67.5578913 22.34375,67.5578913 C10.0228906,67.5578913 0,77.5918292 0,89.9243509 L0,231.114348 C0,243.44687 10.0228906,253.480807 22.34375,253.480807 C34.6646094,253.480807 44.6875,243.44687 44.6875,231.114348 L44.6875,168.608696 L55,168.608696 L55,194.416149 C55,199.167301 58.8482812,203.018634 63.59375,203.018634 L80.78125,203.018634 L80.78125,221.762587 C80.78125,224.043966 81.6870312,226.232438 83.2983594,227.845404 L129.886797,274.480332 C131.498984,276.093298 133.684375,277 135.963437,277 L304.648437,277 C306.9275,277 309.112891,276.093298 310.725078,274.480332 L326.684531,258.504658 L385,258.504658 C389.745469,258.504658 393.59375,254.653326 393.59375,249.902174 L393.59375,168.608696 L422.8125,168.608696 L422.8125,220.332854 C422.8125,225.084006 426.660781,228.935339 431.40625,228.935339 C436.151719,228.935339 440,225.084006 440,220.332854 L440,99.8980714 C440,95.1469193 436.151719,91.295587 431.40625,91.295587 Z" id="Shape"></path>
                        </g>
                        <text id="?" font-family="Helvetica" font-size="150" font-weight="normal" fill="#FFFFFF" fill-opacity="0.7">
                            <tspan x="203" y="192">?</tspan>
                        </text>
                    </g>
                </g>
            </g>
        </g>
    </g>
</svg>