<?xml version="1.0" encoding="UTF-8"?>
<svg width="92px" height="20px" viewBox="0 0 92 20" version="1.1" xmlns="http://www.w3.org/2000/svg" xmlns:xlink="http://www.w3.org/1999/xlink">
    <!-- Generator: Sketch 62 (91390) - https://sketch.com -->
    <title>Redder лого</title>
    <desc>Created with Sketch.</desc>
    <g id="Page-1" stroke="none" stroke-width="1" fill="none" fill-rule="evenodd">
        <g id="A4" transform="translate(-1456.000000, -8156.000000)" fill="#F8F5F2" fill-rule="nonzero">
            <g id="Group-44" transform="translate(372.000000, 8043.000000)">
                <g id="Redder-лого-2" transform="translate(1084.000000, 113.000000)">
                    <g id="Redder-лого">
                        <path d="M10.8322581,19.5698925 L6.89032258,12.7763441 L3.95483871,12.7763441 L3.95483871,19.5698925 L0.0967741935,19.5698925 L0.0967741935,0 L7.92473118,0 C9.73262553,0 11.2702445,0.633685419 12.5376344,1.90107527 C13.8050243,3.16846512 14.4387097,4.69676525 14.4387097,6.48602151 C14.4387097,7.6974971 14.0939102,8.82042494 13.4043011,9.85483871 C12.7146919,10.8892525 11.8014394,11.6673809 10.6645161,12.1892473 L14.9978495,19.5698925 L10.8322581,19.5698925 Z M3.95483871,3.60645161 L3.95483871,9.39354839 L7.92473118,9.39354839 C8.65161654,9.39354839 9.27598305,9.10932184 9.79784946,8.54086022 C10.3197159,7.97239859 10.5806452,7.2874592 10.5806452,6.48602151 C10.5806452,5.68458381 10.3197159,5.00430387 9.79784946,4.44516129 C9.27598305,3.88601871 8.65161654,3.60645161 7.92473118,3.60645161 L3.95483871,3.60645161 Z M19.4430108,14.0623656 C19.927601,15.8143457 21.2415663,16.6903226 23.3849462,16.6903226 C24.7641646,16.6903226 25.8078817,16.2243774 26.516129,15.2924731 L29.4236559,16.9698925 C28.0444375,18.9641676 26.0129167,19.9612903 23.3290323,19.9612903 C21.0179096,19.9612903 19.1634478,19.2623726 17.7655914,17.8645161 C16.3677349,16.4666597 15.6688172,14.705387 15.6688172,12.5806452 C15.6688172,10.4745414 16.358416,8.71792818 17.7376344,7.31075269 C19.1168528,5.90357719 20.8874444,5.2 23.0494624,5.2 C25.0996518,5.2 26.7910328,5.90823665 28.1236559,7.32473118 C29.456279,8.74122572 30.1225806,10.4931795 30.1225806,12.5806452 C30.1225806,13.0465973 30.0759861,13.5404991 29.9827957,14.0623656 L19.4430108,14.0623656 Z M19.3870968,11.2666667 L26.516129,11.2666667 C26.3111101,10.3161243 25.8870968,9.60788763 25.244086,9.14193548 C24.601072,8.67598333 23.8695382,8.44301075 23.0494624,8.44301075 C22.0802819,8.44301075 21.2788562,8.68996169 20.6451613,9.18387097 C20.0114663,9.67778025 19.5921157,10.3720385 19.3870968,11.2666667 Z M43.1225806,0 L46.7290323,0 L46.7290323,19.5698925 L43.1225806,19.5698925 L43.1225806,17.9204301 C42.0602098,19.2810104 40.5505474,19.9612903 38.5935484,19.9612903 C36.7111017,19.9612903 35.1035909,19.2483942 33.7709677,17.8225806 C32.4383446,16.3967671 31.772043,14.6494727 31.772043,12.5806452 C31.772043,10.5118176 32.4383446,8.76452326 33.7709677,7.33870968 C35.1035909,5.9128961 36.7111017,5.2 38.5935484,5.2 C40.5505474,5.2 42.0602098,5.88027994 43.1225806,7.24086022 L43.1225806,0 Z M36.4688172,15.4322581 C37.2143406,16.1591434 38.146231,16.5225806 39.2645161,16.5225806 C40.3828013,16.5225806 41.3053727,16.154484 42.0322581,15.4182796 C42.7591434,14.6820752 43.1225806,13.7362065 43.1225806,12.5806452 C43.1225806,11.4250839 42.7591434,10.4792152 42.0322581,9.74301075 C41.3053727,9.00680635 40.3828013,8.63870968 39.2645161,8.63870968 C38.146231,8.63870968 37.2190001,9.00680635 36.4827957,9.74301075 C35.7465913,10.4792152 35.3784946,11.4250839 35.3784946,12.5806452 C35.3784946,13.7362065 35.7419318,14.6867346 36.4688172,15.4322581 Z M60.6236559,0 L64.2301075,0 L64.2301075,19.5698925 L60.6236559,19.5698925 L60.6236559,17.9204301 C59.5612851,19.2810104 58.0516227,19.9612903 56.0946237,19.9612903 C54.212177,19.9612903 52.6046661,19.2483942 51.272043,17.8225806 C49.9394199,16.3967671 49.2731183,14.6494727 49.2731183,12.5806452 C49.2731183,10.5118176 49.9394199,8.76452326 51.272043,7.33870968 C52.6046661,5.9128961 54.212177,5.2 56.0946237,5.2 C58.0516227,5.2 59.5612851,5.88027994 60.6236559,7.24086022 L60.6236559,0 Z M53.9698925,15.4322581 C54.7154159,16.1591434 55.6473062,16.5225806 56.7655914,16.5225806 C57.8838766,16.5225806 58.806448,16.154484 59.5333333,15.4182796 C60.2602187,14.6820752 60.6236559,13.7362065 60.6236559,12.5806452 C60.6236559,11.4250839 60.2602187,10.4792152 59.5333333,9.74301075 C58.806448,9.00680635 57.8838766,8.63870968 56.7655914,8.63870968 C55.6473062,8.63870968 54.7200754,9.00680635 53.983871,9.74301075 C53.2476666,10.4792152 52.8795699,11.4250839 52.8795699,12.5806452 C52.8795699,13.7362065 53.2430071,14.6867346 53.9698925,15.4322581 Z M70.5763441,14.0623656 C71.0609343,15.8143457 72.3748997,16.6903226 74.5182796,16.6903226 C75.897498,16.6903226 76.9412151,16.2243774 77.6494624,15.2924731 L80.5569892,16.9698925 C79.1777709,18.9641676 77.14625,19.9612903 74.4623656,19.9612903 C72.1512429,19.9612903 70.2967812,19.2623726 68.8989247,17.8645161 C67.5010683,16.4666597 66.8021505,14.705387 66.8021505,12.5806452 C66.8021505,10.4745414 67.4917494,8.71792818 68.8709677,7.31075269 C70.2501861,5.90357719 72.0207777,5.2 74.1827957,5.2 C76.2329852,5.2 77.9243661,5.90823665 79.2569892,7.32473118 C80.5896124,8.74122572 81.255914,10.4931795 81.255914,12.5806452 C81.255914,13.0465973 81.2093195,13.5404991 81.116129,14.0623656 L70.5763441,14.0623656 Z M70.5204301,11.2666667 L77.6494624,11.2666667 C77.4444434,10.3161243 77.0204301,9.60788763 76.3774194,9.14193548 C75.7344054,8.67598333 75.0028715,8.44301075 74.1827957,8.44301075 C73.2136153,8.44301075 72.4121896,8.68996169 71.7784946,9.18387097 C71.1447997,9.67778025 70.725449,10.3720385 70.5204301,11.2666667 Z M87.3784946,7.99569892 C87.7139802,7.1010708 88.2684549,6.43010976 89.0419355,5.9827957 C89.815416,5.53548163 90.6774146,5.31182796 91.627957,5.31182796 L91.627957,9.33763441 C90.5283099,9.20716781 89.5451656,9.43082148 88.6784946,10.0086022 C87.8118237,10.5863828 87.3784946,11.5462299 87.3784946,12.888172 L87.3784946,19.5698925 L83.772043,19.5698925 L83.772043,5.59139785 L87.3784946,5.59139785 L87.3784946,7.99569892 Z" id="Redder"></path>
                    </g>
                </g>
            </g>
        </g>
    </g>
</svg>