<?xml version="1.0" encoding="UTF-8"?>
<svg width="12px" height="22px" viewBox="0 0 12 22" version="1.1" xmlns="http://www.w3.org/2000/svg" xmlns:xlink="http://www.w3.org/1999/xlink">
    <!-- Generator: Sketch 62 (91390) - https://sketch.com -->
    <title>Combined Shape</title>
    <desc>Created with Sketch.</desc>
    <g id="Page-1" stroke="none" stroke-width="1" fill="none" fill-rule="evenodd">
        <g id="A4" transform="translate(-546.000000, -3559.000000)" fill="#777777">
            <g id="Четвертый-экран" transform="translate(372.000000, 2607.000000)">
                <g id="Слайдер" transform="translate(0.000000, 556.000000)">
                    <g id="Стрелки" transform="translate(70.000000, 379.000000)">
                        <g id="Group-16" transform="translate(80.000000, 0.000000)">
                            <g id="Group-15" transform="translate(24.000000, 17.000000)">
                                <path d="M11.6568542,11.7573593 L1.75735931,21.6568542 C1.36683502,22.0473785 0.733670042,22.0473785 0.343145751,21.6568542 C-0.0473785412,21.26633 -0.0473785412,20.633165 0.343145751,20.2426407 L9.58525253,10.9992525 L0.343145751,1.75735931 C-0.0473785412,1.36683502 -0.0473785412,0.733670042 0.343145751,0.343145751 C0.733670042,-0.0473785412 1.36683502,-0.0473785412 1.75735931,0.343145751 L11.6568542,10.2426407 C11.8370962,10.4228827 11.9341496,10.6548114 11.9480144,10.8907161 L11.9480144,11.1092839 C11.9341496,11.3451886 11.8370962,11.5771173 11.6568542,11.7573593 Z" id="Combined-Shape"></path>
                            </g>
                        </g>
                    </g>
                </g>
            </g>
        </g>
    </g>
</svg>